<?xml version="1.0" encoding="UTF-8"?><svg xmlns="http://www.w3.org/2000/svg" xmlns:xlink="http://www.w3.org/1999/xlink" clip-rule="evenodd" fill-rule="evenodd" height="1189.1" image-rendering="optimizeQuality" preserveAspectRatio="xMidYMid meet" shape-rendering="geometricPrecision" text-rendering="geometricPrecision" version="1.0" viewBox="-0.0 0.0 1189.1 1189.1" width="1189.1" zoomAndPan="magnify"><g><g fill="#ffc31f" fill-rule="nonzero" id="change1_1"><path d="M0 328.7l0 -264.8 374.6 0 0 9.3 -365.4 0 0 255.5 -9.2 0zm814.6 -264.8l374.5 0 0 264.8 -9.2 0 0 -255.5 -365.3 0 0 -9.3zm374.5 796.6l0 264.7 -374.5 0 0 -9.3 365.3 0 0 -255.4 9.2 0zm-814.5 264.7l-374.6 0 0 -264.7 9.2 0 0 255.4 365.4 0 0 9.3z"/><path d="M63.9 328.7l0 -328.7 304.5 0 0 9.2 -295.2 0 0 319.5 -9.3 0zm756.8 -328.7l304.5 0 0 328.7 -9.3 0 0 -319.5 -295.2 0 0 -9.2zm304.5 860.5l0 328.6 -304.5 0 0 -9.2 295.2 0 0 -319.4 9.3 0zm-756.8 328.6l-304.5 0 0 -328.6 9.3 0 0 319.4 295.2 0 0 9.2z"/></g></g></svg>